<?xml version="1.0" encoding="UTF-8"?>
<svg width="117px" height="83px" viewBox="0 0 117 83" version="1.1" xmlns="http://www.w3.org/2000/svg" xmlns:xlink="http://www.w3.org/1999/xlink">
    <!-- Generator: Sketch 50.2 (55047) - http://www.bohemiancoding.com/sketch -->
    <title>Market_Landscape_Blue Copy 3</title>
    <desc>Created with Sketch.</desc>
    <defs></defs>
    <g id="Wires" stroke="none" stroke-width="1" fill="none" fill-rule="evenodd">
        <g id="intro" transform="translate(-784.000000, -121.000000)" fill-rule="nonzero">
            <g id="Market_Landscape_Blue-Copy-3" transform="translate(784.000000, 121.000000)">
                <rect id="Rectangle-path" fill="#005C97" x="5.484375" y="5.53333333" width="34.734375" height="71.9333333"></rect>
                <rect id="Rectangle-path" fill="#005C97" x="80.4375" y="42.4222222" width="27.421875" height="35.0444444"></rect>
                <rect id="Rectangle-path" fill="#005C97" x="42.046875" y="21.2111111" width="34.734375" height="56.2555556"></rect>
                <path d="M84.3580572,32.7203996 L84.3580572,18.4444444 L45.703125,18.4444444 L45.703125,83 L84.3580572,83 M84.3580572,61.27231 L84.3580572,54.1343324 M84.3580572,46.9963548 L84.3580572,39.8583772 L117,39.8583772 L117,83 L84.3580572,83 L84.3580572,68.4102876" id="Shape" fill="#5DC9E5"></path>
                <rect id="Rectangle-path" fill="#5DC9E5" x="77.6953125" y="42.4222222" width="7.3125" height="31.3555556"></rect>
                <path d="M45.703125,18.0688868 L45.703125,0 L0,0 L0,81.1555556 L45.703125,81.1555556 L45.703125,18.0688868 Z M18.3125535,72.1983296 L9.15627676,72.1983296 L9.15627676,63.1638862 L18.3125535,63.1638862 L18.3125535,72.1983296 Z M18.3125535,54.1294429 L9.15627676,54.1294429 L9.15627676,45.0949995 L18.3125535,45.0949995 L18.3125535,54.1294429 Z M18.3125535,36.1377735 L9.15627676,36.1377735 L9.15627676,27.1033302 L18.3125535,27.1033302 L18.3125535,36.1377735 Z M18.3125535,18.0688868 L9.15627676,18.0688868 L9.15627676,9.03444339 L18.3125535,9.03444339 L18.3125535,18.0688868 Z M36.5468482,72.1983296 L27.3905715,72.1983296 L27.3905715,63.1638862 L36.5468482,63.1638862 L36.5468482,72.1983296 Z M36.5468482,54.1294429 L27.3905715,54.1294429 L27.3905715,45.0949995 L36.5468482,45.0949995 L36.5468482,54.1294429 Z M36.5468482,36.1377735 L27.3905715,36.1377735 L27.3905715,27.1033302 L36.5468482,27.1033302 L36.5468482,36.1377735 Z M36.5468482,18.0688868 L27.3905715,18.0688868 L27.3905715,9.03444339 L36.5468482,9.03444339 L36.5468482,18.0688868 Z" id="Shape" fill="#5DC9E5"></path>
                <rect id="Rectangle-path" fill="#005C97" x="47.53125" y="64.5555556" width="8.2265625" height="8.3"></rect>
                <rect id="Rectangle-path" fill="#005C97" x="65.8125" y="64.5555556" width="8.2265625" height="8.3"></rect>
                <rect id="Rectangle-path" fill="#005C97" x="47.53125" y="46.1111111" width="8.2265625" height="8.3"></rect>
                <rect id="Rectangle-path" fill="#005C97" x="65.8125" y="46.1111111" width="8.2265625" height="8.3"></rect>
                <rect id="Rectangle-path" fill="#005C97" x="85.0078125" y="64.5555556" width="8.2265625" height="8.3"></rect>
                <rect id="Rectangle-path" fill="#005C97" x="103.289062" y="64.5555556" width="8.2265625" height="8.3"></rect>
                <rect id="Rectangle-path" fill="#005C97" x="85.0078125" y="46.1111111" width="8.2265625" height="8.3"></rect>
                <rect id="Rectangle-path" fill="#005C97" x="103.289062" y="46.1111111" width="8.2265625" height="8.3"></rect>
                <rect id="Rectangle-path" fill="#005C97" x="47.53125" y="26.7444444" width="8.2265625" height="8.3"></rect>
                <rect id="Rectangle-path" fill="#005C97" x="65.8125" y="26.7444444" width="8.2265625" height="8.3"></rect>
            </g>
        </g>
    </g>
</svg>