<?xml version="1.0" encoding="UTF-8"?>
<svg width="90px" height="103px" viewBox="0 0 90 103" version="1.1" xmlns="http://www.w3.org/2000/svg" xmlns:xlink="http://www.w3.org/1999/xlink">
    <!-- Generator: Sketch 50.2 (55047) - http://www.bohemiancoding.com/sketch -->
    <title>u426</title>
    <desc>Created with Sketch.</desc>
    <defs></defs>
    <g id="Wires" stroke="none" stroke-width="1" fill="none" fill-rule="evenodd">
        <g id="intro" transform="translate(-1111.000000, -453.000000)" fill-rule="nonzero">
            <g id="u426" transform="translate(1111.000000, 453.000000)">
                <path d="M62.3717277,11.4535166 L52.7591623,1.86742118 C50.2460733,-0.622473727 46.0366492,-0.622473727 43.5235602,1.86742118 L4.88481675,40.1495554 C2.37172775,42.6394503 2.37172775,46.8100243 4.88481675,49.2999192 L43.5235602,75.1325788 C46.0366492,77.6224737 50.2460733,77.6224737 52.7591623,75.1325788 L85.1151832,43.0751819 C87.6282723,40.585287 87.6282723,36.414713 85.1151832,33.9248181 L75.4397906,24.3387227" id="Shape" fill="#16AEE5"></path>
                <path d="M46.6689655,71.8132075 L8.1862069,45.6622642 C7.93793103,45.4132075 7.93793103,45.0396226 8.1862069,44.790566 L46.6689655,6.18679245 C46.9172414,5.93773585 47.2896552,5.93773585 47.537931,6.18679245 L79.8137931,38.5641509 C80.062069,38.8132075 80.062069,39.1867925 79.8137931,39.4358491 L47.537931,71.8132075 C47.2896552,72.0622642 46.8551724,72.0622642 46.6689655,71.8132075 Z" id="Shape" fill="#5DC9E4"></path>
                <g id="Group" transform="translate(35.000000, 19.000000)" fill="#006DA7">
                    <rect id="Rectangle-path" transform="translate(8.441773, 19.596618) rotate(-45.000000) translate(-8.441773, -19.596618) " x="6.46532092" y="9.92398322" width="3.95290327" height="19.345269"></rect>
                    <rect id="Rectangle-path" transform="translate(16.016844, 16.172822) rotate(-45.000000) translate(-16.016844, -16.172822) " x="14.0403923" y="3.50930735" width="3.95290327" height="25.3270298"></rect>
                    <rect id="Rectangle-path" transform="translate(21.623426, 10.430983) rotate(-45.000000) translate(-21.623426, -10.430983) " x="19.6469742" y="-2.23253174" width="3.95290327" height="25.3270298"></rect>
                </g>
                <path d="M90,49.960501 L90,96.4874759 C90,100.05684 86.8036212,103 82.9178273,103 L7.0821727,103 C3.19637883,103 0,100.05684 0,96.4874759 L0,44.5125241 C0,40.9431599 3.19637883,38 7.0821727,38 L28.3913649,38 L28.3913649,49.960501" id="Shape" fill="#006DA7"></path>
                <polyline id="Shape" fill="#006DA7" points="28.3444444 38 41 51 24 51"></polyline>
            </g>
        </g>
    </g>
</svg>