<?xml version="1.0" encoding="UTF-8"?>
<svg width="92px" height="92px" viewBox="0 0 92 92" version="1.1" xmlns="http://www.w3.org/2000/svg" xmlns:xlink="http://www.w3.org/1999/xlink">
    <!-- Generator: Sketch 50.2 (55047) - http://www.bohemiancoding.com/sketch -->
    <title>u481</title>
    <desc>Created with Sketch.</desc>
    <defs></defs>
    <g id="Wires" stroke="none" stroke-width="1" fill="none" fill-rule="evenodd">
        <g id="intro" transform="translate(-321.000000, -233.000000)" fill-rule="nonzero">
            <g id="u481" transform="translate(321.000000, 233.000000)">
                <circle id="Oval" fill="#006DA7" cx="46" cy="46" r="46"></circle>
                <path d="M75.1608392,66 L16.8391608,66 C16.3356643,66 16,65.6661316 16,65.1653291 L16,14.8346709 C16,14.4173355 16.3356643,14 16.8391608,14 L75.1608392,14 C75.6643357,14 76,14.4173355 76,14.8346709 L76,65.1653291 C76,65.5826645 75.5804196,66 75.1608392,66 Z" id="Shape" fill="#5DC9E4"></path>
                <g id="Group" transform="translate(36.000000, 30.000000)" fill="#16AEE5">
                    <rect id="Rectangle-path" x="0" y="8.75333333" width="20" height="4.16"></rect>
                    <rect id="Rectangle-path" x="0" y="0.433333333" width="20" height="4.16"></rect>
                </g>
                <path d="M92,46 C92,71.4254545 71.4254545,92 46,92 C20.5745455,92 0,71.4254545 0,46" id="Shape" fill="#16AEE5"></path>
                <path d="M46.4674556,66.8094675 C58.2307692,66.8094675 67.8094675,57.2307692 67.8094675,45.4674556 C67.8094675,33.704142 58.2307692,24.2094675 46.4674556,24.2094675 C34.704142,24.2094675 25.1254438,33.704142 25.1254438,45.4674556 C25.1254438,57.2307692 34.704142,66.8094675 46.4674556,66.8094675 Z M70.8343195,63.7846154 L91,83.9502959 L84.9502959,90 L64.7846154,69.8343195 L64.7846154,66.5573964 L63.608284,65.3810651 C59.0710059,69.4982249 52.9372781,71.7668639 46.4674556,71.7668639 C31.8473373,71.7668639 20,60.1715976 20,45.4674556 C20,30.7633136 31.7633136,19 46.4674556,19 C61.1715976,19 72.7668639,30.7633136 72.7668639,45.4674556 C72.7668639,51.9372781 70.4982249,58.0710059 66.4650888,62.608284 L67.6414201,63.7846154 L70.8343195,63.7846154 Z" id="Shape" fill="#FFFFFF"></path>
            </g>
        </g>
    </g>
</svg>