<?xml version="1.0" encoding="utf-8"?>
<!-- Generator: Adobe Illustrator 21.1.0, SVG Export Plug-In . SVG Version: 6.00 Build 0)  -->
<svg version="1.1" id="Layer_1" xmlns="http://www.w3.org/2000/svg" xmlns:xlink="http://www.w3.org/1999/xlink" x="0px" y="0px"
	 viewBox="0 0 158.9 108.5" style="enable-background:new 0 0 158.9 108.5;" xml:space="preserve">
<style type="text/css">
	.st0{fill:none;stroke:#ACACAC;stroke-width:6.6455;stroke-linecap:round;stroke-linejoin:round;stroke-miterlimit:10;}
	
		.st1{clip-path:url(#SVGID_4_);fill:none;stroke:#717171;stroke-width:6.6455;stroke-linecap:round;stroke-linejoin:round;stroke-miterlimit:10;}
	
		.st2{clip-path:url(#SVGID_8_);fill:none;stroke:#717171;stroke-width:6.6455;stroke-linecap:round;stroke-linejoin:round;stroke-miterlimit:10;}
	
		.st3{clip-path:url(#SVGID_10_);fill:none;stroke:#717171;stroke-width:6.6455;stroke-linecap:round;stroke-linejoin:round;stroke-miterlimit:10;}
	
		.st4{clip-path:url(#SVGID_14_);fill:none;stroke:#868686;stroke-width:6.6455;stroke-linecap:round;stroke-linejoin:round;stroke-miterlimit:10;}
	.st5{clip-path:url(#SVGID_19_);}
	.st6{clip-path:url(#SVGID_20_);fill:#535353;}
	.st7{fill:none;stroke:#717171;stroke-width:6.6455;stroke-linecap:round;stroke-linejoin:round;stroke-miterlimit:10;}
	.st8{clip-path:url(#SVGID_25_);}
	.st9{clip-path:url(#SVGID_26_);fill:#535353;}
	
		.st10{clip-path:url(#SVGID_28_);fill:none;stroke:#717171;stroke-width:6.6455;stroke-linecap:round;stroke-linejoin:round;stroke-miterlimit:10;}
	.st11{clip-path:url(#SVGID_33_);}
	.st12{clip-path:url(#SVGID_34_);fill:#535353;}
	.st13{fill:#535353;}
	.st14{clip-path:url(#SVGID_39_);}
	.st15{clip-path:url(#SVGID_40_);fill:#535353;}
</style>
<rect x="71.8" y="10.5" class="st0" width="51.9" height="50.7"/>
<g>
	<g>
		<g>
			<g>
				<defs>
					<rect id="SVGID_1_" x="19.4" y="-13.8" width="126.5" height="126.5"/>
				</defs>
				<clipPath id="SVGID_2_">
					<use xlink:href="#SVGID_1_"  style="overflow:visible;"/>
				</clipPath>
			</g>
		</g>
	</g>
	<g>
		<g>
			<g>
				<defs>
					<rect id="SVGID_3_" x="25" y="-7.9" width="115" height="115"/>
				</defs>
				<clipPath id="SVGID_4_">
					<use xlink:href="#SVGID_3_"  style="overflow:visible;"/>
				</clipPath>
				<path class="st1" d="M126.6,15.1"/>
			</g>
		</g>
	</g>
	<g>
		<g>
			<g>
				<defs>
					<rect id="SVGID_5_" x="19.4" y="-13.8" width="126.5" height="126.5"/>
				</defs>
				<clipPath id="SVGID_6_">
					<use xlink:href="#SVGID_5_"  style="overflow:visible;"/>
				</clipPath>
			</g>
		</g>
	</g>
	<g>
		<g>
			<g>
				<defs>
					<rect id="SVGID_7_" x="25" y="-7.9" width="115" height="115"/>
				</defs>
				<clipPath id="SVGID_8_">
					<use xlink:href="#SVGID_7_"  style="overflow:visible;"/>
				</clipPath>
				<path class="st2" d="M71.2,15.1"/>
			</g>
		</g>
	</g>
	<g>
		<g>
			<g>
				<defs>
					<rect id="SVGID_9_" x="25" y="-7.9" width="115" height="115"/>
				</defs>
				<clipPath id="SVGID_10_">
					<use xlink:href="#SVGID_9_"  style="overflow:visible;"/>
				</clipPath>
				<path class="st3" d="M126.6,70.6"/>
			</g>
		</g>
	</g>
	<g>
		<g>
			<g>
				<defs>
					<rect id="SVGID_11_" x="19.4" y="-13.8" width="126.5" height="126.5"/>
				</defs>
				<clipPath id="SVGID_12_">
					<use xlink:href="#SVGID_11_"  style="overflow:visible;"/>
				</clipPath>
			</g>
		</g>
	</g>
	<g>
		<g>
			<g>
				<defs>
					<rect id="SVGID_13_" x="25" y="-7.9" width="115" height="115"/>
				</defs>
				<clipPath id="SVGID_14_">
					<use xlink:href="#SVGID_13_"  style="overflow:visible;"/>
				</clipPath>
				<path class="st4" d="M89,34.8H44.7 M36.1,45.5v39.9 M47,96h38.3 M97.4,85.4v-8.3V45.5"/>
			</g>
		</g>
	</g>
	<g>
		<g>
			<g>
				<defs>
					<rect id="SVGID_15_" x="19.4" y="-13.8" width="126.5" height="126.5"/>
				</defs>
				<clipPath id="SVGID_16_">
					<use xlink:href="#SVGID_15_"  style="overflow:visible;"/>
				</clipPath>
			</g>
			<g>
				<defs>
					<rect id="SVGID_17_" x="19.4" y="-13.8" width="126.5" height="126.5"/>
				</defs>
				<defs>
					<path id="SVGID_18_" d="M97.4,45.3c5.8,0,10.5-4.6,10.5-10.5s-4.6-10.5-10.5-10.5c-5.8,0-10.5,4.6-10.5,10.5
						C86.9,40.6,91.5,45.3,97.4,45.3L97.4,45.3z"/>
				</defs>
				<clipPath id="SVGID_19_">
					<use xlink:href="#SVGID_17_"  style="overflow:visible;"/>
				</clipPath>
				<clipPath id="SVGID_20_" class="st5">
					<use xlink:href="#SVGID_18_"  style="overflow:visible;"/>
				</clipPath>
				<rect x="76.2" y="13.8" class="st6" width="42.1" height="42.1"/>
			</g>
		</g>
	</g>
	<path class="st7" d="M95.9,45.7"/>
	<g>
		<g>
			<g>
				<defs>
					<rect id="SVGID_21_" x="19.4" y="-13.8" width="126.5" height="126.5"/>
				</defs>
				<clipPath id="SVGID_22_">
					<use xlink:href="#SVGID_21_"  style="overflow:visible;"/>
				</clipPath>
			</g>
			<g>
				<defs>
					<rect id="SVGID_23_" x="19.4" y="-13.8" width="126.5" height="126.5"/>
				</defs>
				<defs>
					<path id="SVGID_24_" d="M36.1,45.3c5.8,0,10.5-4.6,10.5-10.5S42,24.3,36.1,24.3S25.6,29,25.6,34.8S30.5,45.3,36.1,45.3
						L36.1,45.3z"/>
				</defs>
				<clipPath id="SVGID_25_">
					<use xlink:href="#SVGID_23_"  style="overflow:visible;"/>
				</clipPath>
				<clipPath id="SVGID_26_" class="st8">
					<use xlink:href="#SVGID_24_"  style="overflow:visible;"/>
				</clipPath>
				<rect x="15.2" y="13.8" class="st9" width="42.1" height="42.1"/>
			</g>
		</g>
	</g>
	<g>
		<g>
			<g>
				<defs>
					<rect id="SVGID_27_" x="25" y="-7.9" width="115" height="115"/>
				</defs>
				<clipPath id="SVGID_28_">
					<use xlink:href="#SVGID_27_"  style="overflow:visible;"/>
				</clipPath>
				<path class="st10" d="M40.4,45.7"/>
			</g>
		</g>
	</g>
	<g>
		<g>
			<g>
				<defs>
					<rect id="SVGID_29_" x="19.4" y="-13.8" width="126.5" height="126.5"/>
				</defs>
				<clipPath id="SVGID_30_">
					<use xlink:href="#SVGID_29_"  style="overflow:visible;"/>
				</clipPath>
			</g>
			<g>
				<defs>
					<rect id="SVGID_31_" x="19.4" y="-13.8" width="126.5" height="126.5"/>
				</defs>
				<defs>
					<path id="SVGID_32_" d="M97.4,106.5c5.8,0,10.5-4.6,10.5-10.5c0-5.8-4.6-10.5-10.5-10.5c-5.8,0-10.5,4.6-10.5,10.5
						C86.9,101.7,91.5,106.5,97.4,106.5L97.4,106.5z"/>
				</defs>
				<clipPath id="SVGID_33_">
					<use xlink:href="#SVGID_31_"  style="overflow:visible;"/>
				</clipPath>
				<clipPath id="SVGID_34_" class="st11">
					<use xlink:href="#SVGID_32_"  style="overflow:visible;"/>
				</clipPath>
				<rect x="76.2" y="74.9" class="st12" width="42.1" height="42.1"/>
			</g>
		</g>
	</g>
	<g>
		<path class="st13" d="M95.9,101.3"/>
	</g>
	<g>
		<g>
			<g>
				<defs>
					<rect id="SVGID_35_" x="19.4" y="-13.8" width="126.5" height="126.5"/>
				</defs>
				<clipPath id="SVGID_36_">
					<use xlink:href="#SVGID_35_"  style="overflow:visible;"/>
				</clipPath>
			</g>
			<g>
				<defs>
					<rect id="SVGID_37_" x="19.4" y="-13.8" width="126.5" height="126.5"/>
				</defs>
				<defs>
					<path id="SVGID_38_" d="M36.1,106.5c5.8,0,10.5-4.6,10.5-10.5c0-5.8-4.6-10.5-10.5-10.5S25.6,90.2,25.6,96
						C25.6,101.7,30.5,106.5,36.1,106.5L36.1,106.5z"/>
				</defs>
				<clipPath id="SVGID_39_">
					<use xlink:href="#SVGID_37_"  style="overflow:visible;"/>
				</clipPath>
				<clipPath id="SVGID_40_" class="st14">
					<use xlink:href="#SVGID_38_"  style="overflow:visible;"/>
				</clipPath>
				<rect x="15.2" y="74.9" class="st15" width="42.1" height="42.1"/>
			</g>
		</g>
	</g>
</g>
<circle class="st13" cx="71.8" cy="10.5" r="8.7"/>
<circle class="st13" cx="122.3" cy="10.5" r="8.7"/>
<circle class="st13" cx="122.3" cy="61.3" r="8.7"/>
<circle class="st13" cx="71.8" cy="61.3" r="8.7"/>
</svg>
