<?xml version="1.0" encoding="UTF-8"?>
<svg width="94px" height="103px" viewBox="0 0 94 103" version="1.1" xmlns="http://www.w3.org/2000/svg" xmlns:xlink="http://www.w3.org/1999/xlink">
    <!-- Generator: Sketch 50.2 (55047) - http://www.bohemiancoding.com/sketch -->
    <title>Portofolio Optimization Viewer</title>
    <desc>Created with Sketch.</desc>
    <defs></defs>
    <g id="icons" stroke="none" stroke-width="1" fill="none" fill-rule="evenodd">
        <g id="Portofolio-Optimization-Viewer" fill-rule="nonzero">
            <path d="M86.1,97.3 L7.6,97.3 C6.5,97.3 5.6,96.4 5.6,95.3 L5.6,29.1 C5.6,28 6.5,27.1 7.6,27.1 L86.1,27.1 C87.2,27.1 88.1,28 88.1,29.1 L88.1,95.3 C88.1,96.4 87.2,97.3 86.1,97.3 Z" id="Shape" fill="#5DC9E5"></path>
            <path d="M82.7,92.6 L11,92.6 L11,36.2 L82.8,36.2 M67.4,0.3 L67.4,10.6 L26.4,10.6 L26.4,0.3 L16.1,0.3 L16.1,10.6 L11,10.6 C5.3,10.6 0.7,15.2 0.7,20.9 L0.7,92.7 C0.7,98.4 5.3,103 11,103 L82.8,103 C88.5,103 93.1,98.4 93.1,92.7 L93.1,20.8 C93.1,15.1 88.5,10.5 82.8,10.5 L77.7,10.5 L77.7,0.3" id="Shape" fill="#00B1EB"></path>
            <polygon id="Shape" fill="#026CA7" points="57.1 48.3 72.5 48.3 72.5 63.7 66.6 57.8 50.5 73.9 40.2 63.7 24.9 79 21.3 75.4 40.3 56.4 50.5 66.6 63 54.2"></polygon>
        </g>
    </g>
</svg>