<?xml version="1.0" encoding="UTF-8"?>
<svg width="602px" height="600px" viewBox="0 0 602 600" version="1.1" xmlns="http://www.w3.org/2000/svg" xmlns:xlink="http://www.w3.org/1999/xlink">
    <!-- Generator: Sketch 50.2 (55047) - http://www.bohemiancoding.com/sketch -->
    <title>segment-circle copy</title>
    <desc>Created with Sketch.</desc>
    <defs></defs>
    <g id="Page-1" stroke="none" stroke-width="1" fill="none" fill-rule="evenodd">
        <g id="segment-circle-copy" fill-rule="nonzero">
            <path d="M301,0 C408.18,0 507.22,57.18 560.81,150 C614.4,242.82 614.4,357.18 560.81,450 C507.22,542.82 408.18,600 301,600 C193.82,600 94.78,542.82 41.19,450 C-12.4,357.18 -12.4,242.82 41.19,150 C94.78,57.18 193.82,0 301,0 L301,30 C204.54,30 115.4,81.46 67.17,165 C18.94,248.54 18.94,351.46 67.17,435 C115.4,518.54 204.54,570 301,570 C397.46,570 486.6,518.54 534.83,435 C583.06,351.46 583.06,248.54 534.83,165 C486.6,81.46 397.46,30 301,30 L301,0 Z" id="Base-plate" fill-opacity="0.002" fill="#455A64"></path>
            <path d="M301.125,0.125025692 L301.125,29.8750285 C397.542695,29.9194461 486.63111,81.3527865 534.875729,164.829259 L560.639225,149.954261 C507.077994,57.2729334 408.170831,0.169447374 301.125,0.125025692 Z" id="Segment-1" stroke="#FFFFFF" stroke-width="0.25" fill="#3389B8"></path>
            <path d="M560.764226,150.170767 L535.000726,165.045767 C583.169758,248.568992 583.169758,351.431008 535.000726,434.954233 L560.764226,449.829233 C614.248592,357.103351 614.248592,242.896649 560.764225,150.170767 L560.764226,150.170767 Z" id="Segment-2" stroke="#FFFFFF" stroke-width="0.25" fill="#CCE1ED"></path>
            <path d="M560.639225,450.045739 L534.875729,435.170741 C486.63111,518.647213 397.542695,570.080554 301.125,570.124971 L301.125,599.874974 C408.170831,599.830553 507.077994,542.727067 560.639225,450.045739 Z" id="Segment-3" stroke="#FFFFFF" stroke-width="0.25" fill="#1A7AAF"></path>
            <path d="M300.875,599.874974 L300.875,570.124971 C204.457305,570.080554 115.36889,518.647213 67.1242708,435.170741 L41.3607749,450.045739 C94.9220063,542.727067 193.829169,599.830553 300.875,599.874974 Z" id="Segment-4" stroke="#FFFFFF" stroke-width="0.25" fill="#99C4DB"></path>
            <path d="M66.9992741,434.954233 C18.8302419,351.431008 18.8302419,248.568992 66.9992743,165.045767 L41.2357743,150.170767 C-12.2485915,242.896649 -12.2485915,357.103351 41.2357745,449.829233 L66.9992741,434.954233 Z" id="Segment-5" stroke="#FFFFFF" stroke-width="0.25" fill="#66A6CA"></path>
            <path d="M41.3607749,149.954261 L67.1242705,164.829259 C115.36889,81.3527865 204.457305,29.9194461 300.875,29.8750288 L300.875,0.125025692 C193.829169,0.169447374 94.9220063,57.2729334 41.3607751,149.954261 L41.3607749,149.954261 Z" id="Segment-6" stroke="#FFFFFF" stroke-width="0.25" fill="#006BA6"></path>
        </g>
    </g>
</svg>